<?xml version="1.0" encoding="UTF-8" standalone="no"?>
<!-- Creator: CorelDRAW X8 -->

<svg
   xmlns:dc="http://purl.org/dc/elements/1.1/"
   xmlns:cc="http://creativecommons.org/ns#"
   xmlns:rdf="http://www.w3.org/1999/02/22-rdf-syntax-ns#"
   xmlns:svg="http://www.w3.org/2000/svg"
   xmlns="http://www.w3.org/2000/svg"
   xmlns:sodipodi="http://sodipodi.sourceforge.net/DTD/sodipodi-0.dtd"
   xmlns:inkscape="http://www.inkscape.org/namespaces/inkscape"
   xml:space="preserve"
   width="464.117mm"
   height="86.1282mm"
   version="1.1"
   style="shape-rendering:geometricPrecision; text-rendering:geometricPrecision; image-rendering:optimizeQuality; fill-rule:evenodd; clip-rule:evenodd"
   viewBox="0 0 22895 4249"
   id="svg97"
   sodipodi:docname="facebook-like-reactions-seeklogo.com.svg"
   inkscape:version="0.92.1 r"><metadata
     id="metadata101"><rdf:RDF><cc:Work
         rdf:about=""><dc:format>image/svg+xml</dc:format><dc:type
           rdf:resource="http://purl.org/dc/dcmitype/StillImage" /></cc:Work></rdf:RDF></metadata><sodipodi:namedview
     pagecolor="#ffffff"
     bordercolor="#666666"
     borderopacity="1"
     objecttolerance="10"
     gridtolerance="10"
     guidetolerance="10"
     inkscape:pageopacity="0"
     inkscape:pageshadow="2"
     inkscape:window-width="2560"
     inkscape:window-height="1401"
     id="namedview99"
     showgrid="false"
     inkscape:zoom="0.53855054"
     inkscape:cx="796.8168"
     inkscape:cy="151.37849"
     inkscape:window-x="0"
     inkscape:window-y="0"
     inkscape:window-maximized="1"
     inkscape:current-layer="svg97" /><defs
     id="defs12"><style
       type="text/css"
       id="style2"><![CDATA[
    .str0 {stroke:#373435;stroke-width:9.86624}
    .fil6 {fill:none}
    .fil0 {fill:#FEFEFE}
    .fil4 {fill:#FCDC6B}
    .fil1 {fill:#6A99D0}
    .fil5 {fill:#201E1E}
    .fil2 {fill:#F50953}
    .fil3 {fill:#FEFEFE;fill-rule:nonzero}
    .fil8 {fill:#6383C1;fill-rule:nonzero}
    .fil7 {fill:url(#id1)}
   ]]></style><clipPath
       id="id0"><path
         d="M8717 1868c104,-21 209,-43 343,-60 135,-16 301,-27 449,-32 148,-6 278,-6 409,2 130,8 261,23 390,42 129,20 258,44 386,68 0,96 0,191 -26,304 -26,114 -78,244 -159,358 -80,114 -189,212 -279,277 -91,64 -162,94 -245,118 -83,24 -176,41 -269,43 -92,1 -183,-15 -273,-40 -89,-25 -176,-59 -270,-123 -95,-63 -197,-154 -276,-262 -78,-107 -132,-231 -158,-350 -27,-118 -24,-232 -22,-345z"
         id="path4" /></clipPath><linearGradient
       id="id1"
       gradientUnits="userSpaceOnUse"
       x1="20138.9"
       y1="3465.52"
       x2="20138.9"
       y2="783.286"><stop
         offset="0"
         style="stop-opacity:1; stop-color:#FCDC6B"
         id="stop7" /><stop
         offset="1"
         style="stop-opacity:1; stop-color:#DF4158"
         id="stop9" /></linearGradient></defs><rect
     style="fill:#fefefe;stroke:#373435;stroke-width:9.86623955"
     id="rect15"
     ry="2119"
     rx="8582"
     height="4239"
     width="22886"
     y="5"
     x="5"
     class="fil0 str0" /><circle
     class="fil1"
     cx="2563.1047"
     cy="-2311.356"
     r="1341"
     id="circle17"
     style="fill:#6a99d0" /><circle
     class="fil2"
     cx="6079.1045"
     cy="-2311.356"
     r="1341"
     id="circle19"
     style="fill:#f50953"
     inkscape:export-xdpi="90"
     inkscape:export-ydpi="90" /><path
     class="fil0"
     d="m 1920.1047,-2414.356 h 238 c 19,0 34,15 34,34 v 685 c 0,19 -15,34 -34,34 h -238 c -19,0 -35,-15 -35,-34 v -685 c 0,-19 16,-34 35,-34 z m 412,657 h 727 c 53,0 97,-43 97,-97 v 0 c 0,-40 -26,-75 -62,-90 v 0 h 18 c 51,0 93,-56 93,-107 v 0 c 0,-52 -42,-94 -93,-94 h -18 v -8 h 52 c 51,0 94,-42 94,-93 v 0 c 0,-52 -43,-94 -94,-94 h -52 v -8 h 52 c 51,0 94,-42 94,-93 v 0 c 0,-52 -43,-94 -94,-94 h -93 c -4,0 -7,0 -11,0 -2,0 -5,0 -8,0 h -295 c -3,-1 -3,-4 0,-10 5,-10 16,-30 33,-60 17,-30 38,-69 49,-119 11,-50 10,-111 1,-159 -8,-47 -25,-82 -46,-104 -22,-22 -47,-32 -73,-33 -26,-1 -53,6 -72,23 -19,18 -29,45 -34,80 -4,36 -1,80 -2,107 -2,27 -7,38 -24,51 -18,13 -47,30 -74,53 -27,24 -52,54 -78,89 -42,54 -147,190 -147,248 v 552 c 0,33 27,60 60,60 z"
     id="path21"
     inkscape:connector-curvature="0"
     style="fill:#fefefe" /><path
     class="fil3"
     d="m 6079.1047,-2816.356 c 117,-203 235,-304 470,-304 259,0 470,310 470,533 0,405 -562,844 -940,1086 -340,-209 -940,-681 -940,-1086 0,-223 211,-533 470,-533 235,0 352,101 470,304 z"
     id="path23"
     inkscape:connector-curvature="0"
     style="fill:#fefefe;fill-rule:nonzero"
     inkscape:export-xdpi="90"
     inkscape:export-ydpi="90" /><g
     id="g45"
     transform="translate(-193.89534,-4435.356)"><circle
       class="fil4"
       cx="9758"
       cy="2124"
       r="1341"
       id="circle25"
       style="fill:#fcdc6b" /><g
       id="g33"><g
         id="g31"><path
           class="fil5"
           d="m 8892,1334 c 0,74 85,83 145,106 l 14,6 c -31,8 -198,42 -218,54 -22,12 -34,34 -37,57 v 19 c 4,33 30,63 79,63 23,0 50,-10 74,-15 l 214,-49 c 34,-8 185,-35 208,-54 41,-34 38,-85 9,-115 -13,-12 -37,-20 -54,-26 -66,-22 -316,-117 -363,-117 -37,0 -71,35 -71,71 z"
           id="path27"
           inkscape:connector-curvature="0"
           style="fill:#201e1e" /><path
           class="fil5"
           d="m 10083,1488 c 0,63 50,75 95,84 48,10 96,23 143,33 l 214,49 c 41,10 50,14 91,14 28,0 62,-35 62,-63 0,-79 -41,-79 -105,-95 -50,-13 -100,-23 -150,-34 l 122,-46 c 2,-1 7,-5 10,-7 53,-47 25,-131 -52,-131 -18,0 -99,29 -118,36 -66,26 -173,57 -233,81 -39,15 -79,26 -79,79 z"
           id="path29"
           inkscape:connector-curvature="0"
           style="fill:#201e1e" /></g></g><path
       class="fil5"
       d="m 8717,1868 c 104,-21 209,-43 343,-60 135,-16 301,-27 449,-32 148,-6 278,-6 409,2 130,8 261,23 390,42 129,20 258,44 386,68 0,96 0,191 -26,304 -26,114 -78,244 -159,358 -80,114 -189,212 -279,277 -91,64 -162,94 -245,118 -83,24 -176,41 -269,43 -92,1 -183,-15 -273,-40 -89,-25 -176,-59 -270,-123 -95,-63 -197,-154 -276,-262 -78,-107 -132,-231 -158,-350 -27,-118 -24,-232 -22,-345 z"
       id="path35"
       inkscape:connector-curvature="0"
       style="fill:#201e1e" /><g
       clip-path="url(#id0)"
       id="g41"><g
         id="g39"><ellipse
           class="fil2"
           cx="9710"
           cy="2983"
           rx="828"
           ry="595"
           id="ellipse37"
           style="fill:#f50953" /></g></g><path
       class="fil6"
       d="m 8717,1868 c 104,-21 209,-43 343,-60 135,-16 301,-27 449,-32 148,-6 278,-6 409,2 130,8 261,23 390,42 129,20 258,44 386,68 0,96 0,191 -26,304 -26,114 -78,244 -159,358 -80,114 -189,212 -279,277 -91,64 -162,94 -245,118 -83,24 -176,41 -269,43 -92,1 -183,-15 -273,-40 -89,-25 -176,-59 -270,-123 -95,-63 -197,-154 -276,-262 -78,-107 -132,-231 -158,-350 -27,-118 -24,-232 -22,-345 z"
       id="path43"
       inkscape:connector-curvature="0"
       style="fill:none" /></g><g
     id="g63"
     transform="translate(-193.89534,-4435.356)"><circle
       class="fil4"
       cx="13216"
       cy="2124"
       r="1341"
       id="circle47"
       style="fill:#fcdc6b" /><g
       id="g55"><g
         id="g53"><path
           class="fil5"
           d="m 12392,1204 c 0,62 77,97 126,55 14,-13 27,-35 56,-57 12,-8 20,-15 33,-22 56,-28 100,-3 138,39 50,57 136,25 136,-48 0,-61 -222,-287 -450,-41 -7,7 -6,7 -11,14 -13,16 -28,30 -28,60 z"
           id="path49"
           inkscape:connector-curvature="0"
           style="fill:#201e1e" /><path
           class="fil5"
           d="m 13570,1171 c 0,63 61,93 108,70 19,-10 49,-49 79,-63 44,-21 80,-8 115,21 11,9 19,15 29,25 16,16 47,73 109,48 14,-5 22,-12 31,-23 11,-14 16,-26 18,-38 v -14 c -4,-29 -28,-51 -38,-64 -42,-55 -144,-117 -221,-117 -54,0 -112,24 -145,48 l -53,43 c -5,6 -4,6 -9,12 -12,15 -23,23 -23,52 z"
           id="path51"
           inkscape:connector-curvature="0"
           style="fill:#201e1e" /></g></g><ellipse
       class="fil5"
       transform="matrix(1.43407,0,-0.0857114,1.03294,12611,1815.45)"
       rx="137"
       ry="268"
       id="ellipse57"
       cx="0"
       cy="0"
       style="fill:#201e1e" /><ellipse
       class="fil5"
       transform="matrix(-1.43407,0,0.0857114,1.03294,13832.4,1815.45)"
       rx="137"
       ry="268"
       id="ellipse59"
       cx="0"
       cy="0"
       style="fill:#201e1e" /><ellipse
       class="fil5"
       cx="13218"
       cy="2720"
       rx="331"
       ry="544"
       id="ellipse61"
       style="fill:#201e1e" /></g><g
     id="g73"
     transform="translate(-193.89534,-4435.356)"><circle
       class="fil7"
       cx="20139"
       cy="2124"
       r="1341"
       id="circle65"
       style="fill:url(#id1)" /><path
       class="fil5"
       d="m 20305,2993 c 269,0 296,59 296,106 0,48 -133,67 -296,67 -164,0 -297,-19 -297,-67 0,-47 27,-106 297,-106 z"
       id="path67"
       inkscape:connector-curvature="0"
       style="fill:#201e1e" /><path
       class="fil5"
       d="m 19326,2683 c 0,73 59,85 131,106 8,2 16,4 24,7 35,78 118,134 214,134 62,0 118,-23 160,-60 28,4 56,6 85,9 42,3 65,6 91,-17 37,-35 39,-116 -48,-131 l -206,-24 c -85,-12 -242,-47 -327,-78 -15,-6 -30,-11 -45,-13 h -16 c -13,1 -26,7 -40,20 -9,8 -23,31 -23,47 z m 242,135 c 7,2 15,4 22,5 -7,-1 -15,-3 -22,-5 z"
       id="path69"
       inkscape:connector-curvature="0"
       style="fill:#201e1e" /><path
       class="fil5"
       d="m 21258,2697 c 0,69 -56,80 -125,100 -7,2 -14,4 -22,6 -33,74 -111,127 -202,127 -58,0 -111,-22 -150,-56 -27,3 -54,5 -81,8 -39,3 -61,6 -85,-17 -35,-33 -38,-109 44,-123 l 195,-22 c 81,-12 228,-45 308,-74 14,-5 28,-11 43,-12 h 15 c 12,1 24,7 37,18 9,9 23,30 23,45 z m -229,127 c -7,2 -14,4 -21,5 7,-1 14,-3 21,-5 z"
       id="path71"
       inkscape:connector-curvature="0"
       style="fill:#201e1e" /></g><g
     id="g93"
     transform="translate(-193.89534,-4435.356)"><circle
       class="fil4"
       cx="16680"
       cy="2124"
       r="1324"
       id="circle75"
       style="fill:#fcdc6b" /><ellipse
       class="fil5"
       cx="16053"
       cy="2304"
       rx="181"
       ry="214"
       id="ellipse77"
       style="fill:#201e1e" /><ellipse
       class="fil5"
       cx="17300"
       cy="2304"
       rx="181"
       ry="214"
       id="ellipse79"
       style="fill:#201e1e" /><g
       id="g87"><g
         id="g85"><path
           class="fil5"
           d="m 17168,1913 c 0,49 27,82 74,82 28,0 114,-39 203,20 28,19 42,59 86,59 40,0 72,-30 76,-68 4,-42 -30,-70 -52,-92 -48,-49 -134,-75 -213,-80 h -41 c -74,4 -133,31 -133,79 z"
           id="path81"
           inkscape:connector-curvature="0"
           style="fill:#201e1e" /><path
           class="fil5"
           d="m 15841,2074 c 74,0 75,-119 251,-87 22,4 20,8 45,8 75,0 105,-113 18,-145 -23,-9 -51,-14 -80,-16 h -40 c -80,4 -167,32 -212,78 -23,23 -55,48 -54,87 1,40 34,75 72,75 z"
           id="path83"
           inkscape:connector-curvature="0"
           style="fill:#201e1e" /></g></g><path
       class="fil5"
       d="m 16319,2981 c 0,50 24,86 74,86 21,0 48,-18 63,-27 127,-77 250,-89 386,-34 57,23 108,92 169,36 18,-17 21,-30 21,-57 0,-39 -26,-54 -49,-70 -88,-62 -189,-91 -291,-91 -109,0 -218,31 -313,89 -12,7 -28,15 -38,24 -8,8 -22,29 -22,44 z"
       id="path89"
       inkscape:connector-curvature="0"
       style="fill:#201e1e" /><path
       class="fil8"
       d="m 17471,2779 c 35,133 214,318 214,424 0,106 -54,213 -214,213 -161,0 -214,-107 -214,-213 0,-106 180,-298 214,-424 z"
       id="path91"
       inkscape:connector-curvature="0"
       style="fill:#6383c1;fill-rule:nonzero" /></g></svg>